   <svg
                  width="170"
                  height="59"
                  viewBox="0 0 170 59"
                  fill="none"
                  xmlns="http://www.w3.org/2000/svg"
                >
                  <path
                    d="M6.88382 27C-0.71618 20.2 -0.860318 6.83333 0.973015 1L37.8838 18.5L6.88382 27Z"
                    fill="#faca15"
                  />
                  <path
                    d="M58 28C60 23.5 60.5 19.5 58.5 14L9 28H58Z"
                    fill="#faca15"
                  />
                  <path
                    d="M59 29.5C59 33.374 58.237 37.2101 56.7544 40.7892C55.2719 44.3683 53.099 47.6203 50.3596 50.3597C47.6203 53.099 44.3683 55.2719 40.7892 56.7544C37.2101 58.237 33.374 59 29.5 59C25.626 59 21.7899 58.237 18.2108 56.7544C14.6317 55.2719 11.3797 53.099 8.64035 50.3596C5.90102 47.6203 3.72807 44.3683 2.24555 40.7892C0.763039 37.2101 -3.38675e-07 33.374 0 29.5L29.5 29.5H59Z"
                    fill="#faca15"
                  />
                </svg>